<svg id="svg" version="1.1" xmlns="http://www.w3.org/2000/svg" xmlns:xlink="http://www.w3.org/1999/xlink" width="400" height="400" viewBox="0, 0, 400,400"><g id="svgg"><path id="path0" d="M136.000 126.012 C 129.920 126.838,125.875 131.623,125.866 138.000 C 125.859 143.471,124.500 141.867,155.095 172.487 C 170.201 187.604,182.431 200.114,182.273 200.287 C 182.115 200.459,169.776 212.840,154.853 227.800 C 124.522 258.207,125.868 256.609,125.868 262.200 C 125.868 269.530,130.598 274.207,138.000 274.194 C 143.511 274.185,142.133 275.354,172.387 245.040 C 187.230 230.168,199.651 218.000,199.988 218.000 C 200.326 218.000,212.752 230.162,227.601 245.027 C 258.006 275.465,256.497 274.193,262.200 274.193 C 269.671 274.193,274.195 269.668,274.193 262.200 C 274.192 256.497,275.464 258.005,245.027 227.601 C 230.162 212.752,218.000 200.325,218.000 199.986 C 218.000 199.648,230.177 187.227,245.059 172.385 C 275.548 141.979,274.217 143.560,274.178 137.800 C 274.122 129.480,266.120 123.823,258.091 126.428 C 255.490 127.271,254.716 127.998,227.103 155.553 L 200.006 182.592 172.503 155.157 C 141.200 123.932,142.671 125.107,136.000 126.012 " stroke="none" fill="#fcfbfb" fill-rule="evenodd"></path><path id="path1" d="M178.300 0.275 C 176.375 0.361,174.800 0.604,174.800 0.816 C 174.800 1.027,173.551 1.200,172.024 1.200 C 170.497 1.200,169.136 1.380,169.000 1.600 C 168.864 1.820,167.773 2.000,166.576 2.000 C 165.379 2.000,164.400 2.180,164.400 2.400 C 164.400 2.620,163.410 2.800,162.200 2.800 C 160.990 2.800,160.000 2.980,160.000 3.200 C 160.000 3.420,159.291 3.600,158.424 3.600 C 157.557 3.600,156.736 3.780,156.600 4.000 C 156.464 4.220,155.553 4.400,154.576 4.400 C 153.599 4.400,152.800 4.580,152.800 4.800 C 152.800 5.020,152.080 5.200,151.200 5.200 C 150.320 5.200,149.600 5.380,149.600 5.600 C 149.600 5.820,148.981 6.000,148.224 6.000 C 147.467 6.000,146.736 6.180,146.600 6.400 C 146.464 6.620,145.823 6.800,145.176 6.800 C 144.529 6.800,144.000 6.980,144.000 7.200 C 144.000 7.420,143.370 7.600,142.600 7.600 C 141.830 7.600,141.200 7.780,141.200 8.000 C 141.200 8.220,140.660 8.400,140.000 8.400 C 139.340 8.400,138.800 8.599,138.800 8.843 C 138.800 9.086,138.543 9.187,138.229 9.067 C 137.704 8.865,135.856 9.309,134.400 9.986 C 134.070 10.140,132.945 10.515,131.900 10.820 C 130.855 11.125,130.000 11.515,130.000 11.687 C 130.000 11.859,129.561 12.000,129.024 12.000 C 128.487 12.000,127.936 12.180,127.800 12.400 C 127.664 12.620,127.113 12.800,126.576 12.800 C 126.039 12.800,125.600 12.980,125.600 13.200 C 125.600 13.420,125.240 13.600,124.800 13.600 C 124.360 13.600,124.000 13.747,124.000 13.928 C 124.000 14.108,123.100 14.500,122.000 14.800 C 120.900 15.100,120.000 15.492,120.000 15.672 C 120.000 15.853,119.640 16.000,119.200 16.000 C 118.760 16.000,118.400 16.180,118.400 16.400 C 118.400 16.620,118.040 16.800,117.600 16.800 C 117.160 16.800,116.800 16.980,116.800 17.200 C 116.800 17.420,116.528 17.600,116.195 17.600 C 115.862 17.600,115.277 17.760,114.895 17.956 C 114.513 18.152,113.300 18.737,112.200 19.256 C 111.100 19.775,110.140 20.335,110.067 20.500 C 109.993 20.665,109.588 20.800,109.167 20.800 C 108.745 20.800,108.400 20.980,108.400 21.200 C 108.400 21.420,108.040 21.600,107.600 21.600 C 107.160 21.600,106.800 21.780,106.800 22.000 C 106.800 22.220,106.564 22.400,106.275 22.400 C 105.987 22.400,105.364 22.760,104.892 23.200 C 104.420 23.640,103.756 24.000,103.417 24.000 C 103.078 24.000,102.800 24.157,102.800 24.350 C 102.800 24.543,102.282 24.804,101.648 24.930 C 101.015 25.057,100.226 25.431,99.896 25.761 C 99.566 26.092,99.184 26.250,99.048 26.114 C 98.911 25.978,98.800 26.057,98.800 26.290 C 98.800 26.523,98.104 26.992,97.253 27.332 C 96.402 27.673,95.457 28.187,95.153 28.476 C 94.849 28.764,94.060 29.269,93.400 29.597 C 92.740 29.926,91.909 30.511,91.553 30.897 C 91.197 31.284,90.652 31.600,90.341 31.600 C 90.031 31.600,89.517 31.960,89.200 32.400 C 88.883 32.840,88.343 33.200,88.000 33.200 C 87.657 33.200,87.117 33.560,86.800 34.000 C 86.483 34.440,86.020 34.800,85.771 34.800 C 85.522 34.800,84.754 35.340,84.063 36.000 C 83.372 36.660,82.575 37.200,82.292 37.200 C 82.009 37.200,81.517 37.560,81.200 38.000 C 80.883 38.440,80.407 38.800,80.142 38.800 C 79.878 38.800,78.956 39.520,78.093 40.400 C 77.231 41.280,76.360 42.000,76.158 42.000 C 75.957 42.000,75.344 42.410,74.796 42.911 C 74.248 43.413,73.170 44.262,72.400 44.798 C 71.630 45.335,70.370 46.416,69.600 47.200 C 68.830 47.984,67.575 49.065,66.812 49.603 C 64.938 50.922,59.621 56.288,59.906 56.572 C 60.031 56.698,59.845 56.800,59.494 56.800 C 59.142 56.800,58.743 57.151,58.606 57.580 C 58.470 58.008,58.008 58.470,57.580 58.606 C 57.151 58.743,56.800 59.142,56.800 59.494 C 56.800 59.845,56.694 60.027,56.563 59.897 C 56.277 59.610,50.983 64.851,49.618 66.771 C 49.082 67.526,47.694 69.124,46.533 70.323 C 45.371 71.521,44.314 72.839,44.184 73.251 C 44.053 73.663,43.748 74.000,43.506 74.000 C 43.265 74.000,43.186 74.119,43.331 74.264 C 43.476 74.409,43.236 74.780,42.797 75.087 C 42.359 75.394,42.000 75.843,42.000 76.085 C 42.000 76.327,41.280 77.231,40.400 78.093 C 39.520 78.956,38.800 79.878,38.800 80.142 C 38.800 80.407,38.440 80.883,38.000 81.200 C 37.560 81.517,37.200 82.009,37.200 82.292 C 37.200 82.575,36.660 83.372,36.000 84.063 C 35.340 84.754,34.800 85.522,34.800 85.771 C 34.800 86.020,34.440 86.483,34.000 86.800 C 33.560 87.117,33.200 87.657,33.200 88.000 C 33.200 88.343,32.840 88.883,32.400 89.200 C 31.960 89.517,31.600 90.031,31.600 90.341 C 31.600 90.652,31.284 91.197,30.897 91.553 C 30.511 91.909,29.926 92.740,29.597 93.400 C 29.269 94.060,28.685 94.949,28.300 95.375 C 27.915 95.802,27.600 96.387,27.600 96.675 C 27.600 96.964,27.409 97.200,27.176 97.200 C 26.943 97.200,26.855 97.365,26.980 97.568 C 27.105 97.770,26.923 98.220,26.575 98.568 C 26.227 98.915,26.059 99.200,26.200 99.200 C 26.341 99.200,26.165 99.492,25.809 99.848 C 25.452 100.205,25.057 101.015,24.930 101.648 C 24.804 102.282,24.543 102.800,24.350 102.800 C 24.158 102.800,24.000 103.120,24.000 103.512 C 24.000 103.903,23.640 104.483,23.200 104.800 C 22.760 105.117,22.400 105.697,22.400 106.088 C 22.400 106.480,22.220 106.800,22.000 106.800 C 21.780 106.800,21.600 107.160,21.600 107.600 C 21.600 108.040,21.420 108.400,21.200 108.400 C 20.980 108.400,20.800 108.745,20.800 109.167 C 20.800 109.588,20.665 109.993,20.500 110.067 C 20.335 110.140,19.775 111.100,19.256 112.200 C 18.737 113.300,18.152 114.513,17.956 114.895 C 17.760 115.277,17.600 115.862,17.600 116.195 C 17.600 116.528,17.420 116.800,17.200 116.800 C 16.980 116.800,16.800 117.160,16.800 117.600 C 16.800 118.040,16.620 118.400,16.400 118.400 C 16.180 118.400,16.000 118.760,16.000 119.200 C 16.000 119.640,15.820 120.000,15.600 120.000 C 15.380 120.000,15.200 120.349,15.200 120.776 C 15.200 121.203,15.020 121.664,14.800 121.800 C 14.580 121.936,14.400 122.487,14.400 123.024 C 14.400 123.561,14.220 124.000,14.000 124.000 C 13.780 124.000,13.600 124.272,13.600 124.605 C 13.600 124.938,13.420 125.568,13.200 126.005 C 12.980 126.442,12.620 127.158,12.400 127.595 C 12.180 128.032,12.000 128.752,12.000 129.195 C 12.000 129.638,11.860 130.000,11.689 130.000 C 11.421 130.000,9.785 134.817,9.955 135.104 C 9.988 135.161,9.744 135.735,9.411 136.379 C 9.078 137.023,8.914 137.831,9.046 138.175 C 9.178 138.519,9.086 138.800,8.843 138.800 C 8.599 138.800,8.400 139.340,8.400 140.000 C 8.400 140.660,8.220 141.200,8.000 141.200 C 7.780 141.200,7.600 141.830,7.600 142.600 C 7.600 143.370,7.420 144.000,7.200 144.000 C 6.980 144.000,6.800 144.529,6.800 145.176 C 6.800 145.823,6.620 146.464,6.400 146.600 C 6.180 146.736,6.000 147.467,6.000 148.224 C 6.000 148.981,5.820 149.600,5.600 149.600 C 5.380 149.600,5.200 150.320,5.200 151.200 C 5.200 152.080,5.020 152.800,4.800 152.800 C 4.580 152.800,4.400 153.599,4.400 154.576 C 4.400 155.553,4.220 156.464,4.000 156.600 C 3.780 156.736,3.600 157.557,3.600 158.424 C 3.600 159.291,3.420 160.000,3.200 160.000 C 2.980 160.000,2.800 160.889,2.800 161.976 C 2.800 163.063,2.620 164.064,2.400 164.200 C 2.180 164.336,2.000 165.416,2.000 166.600 C 2.000 167.784,1.820 168.864,1.600 169.000 C 1.380 169.136,1.200 170.482,1.200 171.990 C 1.200 173.829,1.035 174.788,0.700 174.900 C -0.032 175.144,-0.032 224.856,0.700 225.100 C 1.035 225.212,1.200 226.171,1.200 228.010 C 1.200 229.518,1.380 230.864,1.600 231.000 C 1.820 231.136,2.000 232.216,2.000 233.400 C 2.000 234.584,2.180 235.664,2.400 235.800 C 2.620 235.936,2.800 236.937,2.800 238.024 C 2.800 239.111,2.980 240.000,3.200 240.000 C 3.420 240.000,3.600 240.709,3.600 241.576 C 3.600 242.443,3.780 243.264,4.000 243.400 C 4.220 243.536,4.400 244.447,4.400 245.424 C 4.400 246.401,4.580 247.200,4.800 247.200 C 5.020 247.200,5.200 247.920,5.200 248.800 C 5.200 249.680,5.380 250.400,5.600 250.400 C 5.820 250.400,6.000 251.019,6.000 251.776 C 6.000 252.533,6.180 253.264,6.400 253.400 C 6.620 253.536,6.800 254.177,6.800 254.824 C 6.800 255.471,6.980 256.000,7.200 256.000 C 7.420 256.000,7.600 256.630,7.600 257.400 C 7.600 258.170,7.780 258.800,8.000 258.800 C 8.220 258.800,8.400 259.340,8.400 260.000 C 8.400 260.660,8.599 261.200,8.843 261.200 C 9.086 261.200,9.178 261.481,9.046 261.825 C 8.914 262.169,9.078 262.977,9.411 263.621 C 9.744 264.265,9.988 264.839,9.955 264.896 C 9.785 265.183,11.421 270.000,11.689 270.000 C 11.860 270.000,12.000 270.362,12.000 270.805 C 12.000 271.248,12.180 271.968,12.400 272.405 C 12.620 272.842,12.980 273.558,13.200 273.995 C 13.420 274.432,13.600 275.062,13.600 275.395 C 13.600 275.728,13.780 276.000,14.000 276.000 C 14.220 276.000,14.400 276.439,14.400 276.976 C 14.400 277.513,14.580 278.064,14.800 278.200 C 15.020 278.336,15.200 278.797,15.200 279.224 C 15.200 279.651,15.380 280.000,15.600 280.000 C 15.820 280.000,16.000 280.360,16.000 280.800 C 16.000 281.240,16.180 281.600,16.400 281.600 C 16.620 281.600,16.800 281.960,16.800 282.400 C 16.800 282.840,16.980 283.200,17.200 283.200 C 17.420 283.200,17.600 283.560,17.600 284.000 C 17.600 284.440,17.780 284.800,18.000 284.800 C 18.220 284.800,18.400 285.143,18.400 285.562 C 18.400 286.378,20.001 289.712,20.500 289.933 C 20.665 290.007,20.800 290.412,20.800 290.833 C 20.800 291.255,20.980 291.600,21.200 291.600 C 21.420 291.600,21.600 291.960,21.600 292.400 C 21.600 292.840,21.780 293.200,22.000 293.200 C 22.220 293.200,22.400 293.436,22.400 293.725 C 22.400 294.013,22.760 294.636,23.200 295.108 C 23.640 295.580,24.000 296.244,24.000 296.583 C 24.000 296.922,24.180 297.200,24.400 297.200 C 24.620 297.200,24.800 297.442,24.800 297.739 C 24.800 298.299,25.960 300.851,26.374 301.200 C 26.504 301.310,27.042 302.255,27.568 303.300 C 28.095 304.345,28.634 305.200,28.765 305.200 C 28.897 305.200,29.229 305.706,29.503 306.325 C 29.776 306.944,30.360 307.836,30.800 308.308 C 31.240 308.780,31.600 309.404,31.600 309.695 C 31.600 309.986,31.960 310.483,32.400 310.800 C 32.840 311.117,33.200 311.609,33.200 311.892 C 33.200 312.175,33.740 312.972,34.400 313.663 C 35.060 314.354,35.600 315.122,35.600 315.371 C 35.600 315.620,35.960 316.083,36.400 316.400 C 36.840 316.717,37.200 317.257,37.200 317.600 C 37.200 317.943,37.560 318.483,38.000 318.800 C 38.440 319.117,38.800 319.607,38.800 319.888 C 38.800 320.170,38.980 320.400,39.200 320.400 C 39.420 320.400,39.600 320.598,39.600 320.840 C 39.600 321.081,40.140 321.783,40.800 322.400 C 41.460 323.017,42.000 323.709,42.000 323.938 C 42.000 324.167,42.400 324.635,42.889 324.977 C 43.378 325.320,43.603 325.603,43.389 325.606 C 43.163 325.610,43.176 325.736,43.419 325.906 C 43.650 326.068,44.274 326.830,44.806 327.600 C 45.339 328.370,46.416 329.630,47.200 330.400 C 47.984 331.170,49.067 332.430,49.606 333.200 C 50.789 334.890,57.485 341.600,57.989 341.600 C 58.185 341.600,58.460 341.960,58.600 342.400 C 58.740 342.840,59.142 343.200,59.494 343.200 C 59.845 343.200,60.027 343.306,59.897 343.437 C 59.605 343.728,64.880 349.042,66.800 350.391 C 67.570 350.932,68.830 352.016,69.600 352.800 C 70.370 353.584,71.630 354.665,72.400 355.202 C 73.170 355.739,74.160 356.513,74.600 356.923 C 75.040 357.333,75.850 357.907,76.400 358.200 C 76.950 358.493,77.665 359.108,77.988 359.566 C 78.312 360.025,78.807 360.400,79.088 360.400 C 79.370 360.400,79.600 360.580,79.600 360.800 C 79.600 361.020,79.830 361.200,80.112 361.200 C 80.393 361.200,80.883 361.560,81.200 362.000 C 81.517 362.440,82.057 362.800,82.400 362.800 C 82.743 362.800,83.283 363.160,83.600 363.600 C 83.917 364.040,84.380 364.400,84.629 364.400 C 84.878 364.400,85.646 364.940,86.337 365.600 C 87.028 366.260,87.782 366.800,88.013 366.800 C 88.244 366.800,88.820 367.160,89.292 367.600 C 89.764 368.040,90.387 368.400,90.675 368.400 C 90.964 368.400,91.200 368.580,91.200 368.800 C 91.200 369.020,91.388 369.200,91.617 369.200 C 91.846 369.200,92.420 369.560,92.892 370.000 C 93.364 370.440,93.987 370.800,94.275 370.800 C 94.564 370.800,94.800 370.952,94.800 371.137 C 94.800 371.323,95.655 371.905,96.700 372.432 C 97.745 372.958,98.690 373.502,98.800 373.639 C 99.168 374.099,101.553 375.200,102.180 375.200 C 102.521 375.200,102.800 375.380,102.800 375.600 C 102.800 375.820,103.160 376.000,103.600 376.000 C 104.040 376.000,104.400 376.180,104.400 376.400 C 104.400 376.620,104.636 376.800,104.925 376.800 C 105.213 376.800,105.836 377.160,106.308 377.600 C 106.780 378.040,107.444 378.400,107.783 378.400 C 108.122 378.400,108.400 378.580,108.400 378.800 C 108.400 379.020,108.745 379.200,109.167 379.200 C 109.588 379.200,109.993 379.335,110.067 379.500 C 110.140 379.665,111.100 380.225,112.200 380.744 C 113.300 381.263,114.513 381.848,114.895 382.044 C 115.277 382.240,115.862 382.400,116.195 382.400 C 116.528 382.400,116.800 382.580,116.800 382.800 C 116.800 383.020,117.160 383.200,117.600 383.200 C 118.040 383.200,118.400 383.380,118.400 383.600 C 118.400 383.820,118.760 384.000,119.200 384.000 C 119.640 384.000,120.000 384.147,120.000 384.328 C 120.000 384.508,120.900 384.900,122.000 385.200 C 123.100 385.500,124.000 385.892,124.000 386.072 C 124.000 386.253,124.272 386.400,124.605 386.400 C 124.938 386.400,125.568 386.580,126.005 386.800 C 126.442 387.020,127.158 387.380,127.595 387.600 C 128.032 387.820,128.752 388.000,129.195 388.000 C 129.638 388.000,130.000 388.180,130.000 388.400 C 130.000 388.620,130.362 388.800,130.805 388.800 C 131.248 388.800,131.923 388.976,132.305 389.191 C 133.508 389.868,139.174 391.600,140.185 391.600 C 140.717 391.600,141.264 391.780,141.400 392.000 C 141.536 392.220,142.177 392.400,142.824 392.400 C 143.471 392.400,144.000 392.580,144.000 392.800 C 144.000 393.020,144.630 393.200,145.400 393.200 C 146.170 393.200,146.800 393.380,146.800 393.600 C 146.800 393.820,147.430 394.000,148.200 394.000 C 148.970 394.000,149.600 394.180,149.600 394.400 C 149.600 394.620,150.320 394.800,151.200 394.800 C 152.080 394.800,152.800 394.980,152.800 395.200 C 152.800 395.420,153.700 395.600,154.800 395.600 C 155.900 395.600,156.800 395.780,156.800 396.000 C 156.800 396.220,157.520 396.400,158.400 396.400 C 159.280 396.400,160.000 396.580,160.000 396.800 C 160.000 397.020,160.990 397.200,162.200 397.200 C 163.410 397.200,164.400 397.380,164.400 397.600 C 164.400 397.822,165.467 398.000,166.800 398.000 C 168.133 398.000,169.200 398.178,169.200 398.400 C 169.200 398.628,170.389 398.800,171.967 398.800 C 173.824 398.800,174.788 398.964,174.900 399.300 C 175.144 400.032,224.856 400.032,225.100 399.300 C 225.212 398.964,226.176 398.800,228.033 398.800 C 229.611 398.800,230.800 398.628,230.800 398.400 C 230.800 398.178,231.859 398.000,233.176 398.000 C 234.483 398.000,235.664 397.820,235.800 397.600 C 235.936 397.380,236.937 397.200,238.024 397.200 C 239.111 397.200,240.000 397.020,240.000 396.800 C 240.000 396.580,240.720 396.400,241.600 396.400 C 242.480 396.400,243.200 396.220,243.200 396.000 C 243.200 395.780,244.100 395.600,245.200 395.600 C 246.300 395.600,247.200 395.420,247.200 395.200 C 247.200 394.980,247.920 394.800,248.800 394.800 C 249.680 394.800,250.400 394.620,250.400 394.400 C 250.400 394.180,251.030 394.000,251.800 394.000 C 252.570 394.000,253.200 393.820,253.200 393.600 C 253.200 393.380,253.830 393.200,254.600 393.200 C 255.370 393.200,256.000 393.020,256.000 392.800 C 256.000 392.580,256.630 392.400,257.400 392.400 C 258.170 392.400,258.800 392.220,258.800 392.000 C 258.800 391.780,259.241 391.600,259.780 391.600 C 260.960 391.600,269.744 388.755,269.933 388.312 C 270.007 388.140,270.414 388.000,270.839 388.000 C 271.585 388.000,271.976 387.855,273.895 386.862 C 274.387 386.608,275.062 386.400,275.395 386.400 C 275.728 386.400,276.000 386.220,276.000 386.000 C 276.000 385.780,276.439 385.600,276.976 385.600 C 277.513 385.600,278.064 385.420,278.200 385.200 C 278.336 384.980,278.797 384.800,279.224 384.800 C 279.651 384.800,280.000 384.620,280.000 384.400 C 280.000 384.180,280.360 384.000,280.800 384.000 C 281.240 384.000,281.600 383.820,281.600 383.600 C 281.600 383.380,281.960 383.200,282.400 383.200 C 282.840 383.200,283.200 383.020,283.200 382.800 C 283.200 382.580,283.472 382.400,283.805 382.400 C 284.138 382.400,284.723 382.240,285.105 382.044 C 285.487 381.848,286.700 381.263,287.800 380.744 C 288.900 380.225,289.860 379.665,289.933 379.500 C 290.007 379.335,290.412 379.200,290.833 379.200 C 291.255 379.200,291.600 379.020,291.600 378.800 C 291.600 378.580,291.960 378.400,292.400 378.400 C 292.840 378.400,293.200 378.220,293.200 378.000 C 293.200 377.780,293.436 377.600,293.725 377.600 C 294.013 377.600,294.636 377.240,295.108 376.800 C 295.580 376.360,296.244 376.000,296.583 376.000 C 296.922 376.000,297.200 375.820,297.200 375.600 C 297.200 375.380,297.479 375.200,297.820 375.200 C 298.447 375.200,300.832 374.099,301.200 373.639 C 301.310 373.502,302.255 372.958,303.300 372.432 C 304.345 371.905,305.200 371.366,305.200 371.235 C 305.200 371.103,305.706 370.771,306.325 370.497 C 306.944 370.224,307.836 369.640,308.308 369.200 C 308.780 368.760,309.404 368.400,309.695 368.400 C 309.986 368.400,310.483 368.040,310.800 367.600 C 311.117 367.160,311.657 366.800,312.000 366.800 C 312.343 366.800,312.883 366.440,313.200 366.000 C 313.517 365.560,313.980 365.200,314.229 365.200 C 314.478 365.200,315.246 364.660,315.937 364.000 C 316.628 363.340,317.425 362.800,317.708 362.800 C 317.991 362.800,318.483 362.440,318.800 362.000 C 319.117 361.560,319.607 361.200,319.888 361.200 C 320.170 361.200,320.400 361.020,320.400 360.800 C 320.400 360.580,320.588 360.400,320.818 360.400 C 321.048 360.400,321.686 359.950,322.236 359.400 C 322.786 358.850,323.381 358.400,323.559 358.400 C 323.736 358.400,324.403 357.903,325.041 357.296 C 325.678 356.688,326.830 355.749,327.600 355.209 C 328.370 354.668,329.630 353.584,330.400 352.800 C 331.170 352.016,332.430 350.933,333.200 350.394 C 333.970 349.855,336.180 347.791,338.112 345.807 C 342.342 341.463,341.463 342.342,345.807 338.112 C 347.791 336.180,349.855 333.970,350.394 333.200 C 350.933 332.430,352.016 331.170,352.800 330.400 C 353.584 329.630,354.668 328.370,355.209 327.600 C 355.749 326.830,356.688 325.678,357.296 325.041 C 357.903 324.403,358.400 323.736,358.400 323.559 C 358.400 323.381,358.850 322.786,359.400 322.236 C 359.950 321.686,360.400 321.048,360.400 320.818 C 360.400 320.588,360.580 320.400,360.800 320.400 C 361.020 320.400,361.200 320.170,361.200 319.888 C 361.200 319.607,361.560 319.117,362.000 318.800 C 362.440 318.483,362.800 317.991,362.800 317.708 C 362.800 317.425,363.340 316.628,364.000 315.937 C 364.660 315.246,365.200 314.478,365.200 314.229 C 365.200 313.980,365.560 313.517,366.000 313.200 C 366.440 312.883,366.800 312.343,366.800 312.000 C 366.800 311.657,367.160 311.117,367.600 310.800 C 368.040 310.483,368.400 309.986,368.400 309.695 C 368.400 309.404,368.760 308.780,369.200 308.308 C 369.640 307.836,370.224 306.944,370.497 306.325 C 370.771 305.706,371.103 305.200,371.235 305.200 C 371.366 305.200,371.905 304.345,372.432 303.300 C 372.958 302.255,373.502 301.310,373.639 301.200 C 374.099 300.832,375.200 298.447,375.200 297.820 C 375.200 297.479,375.380 297.200,375.600 297.200 C 375.820 297.200,376.000 296.922,376.000 296.583 C 376.000 296.244,376.360 295.580,376.800 295.108 C 377.240 294.636,377.600 294.013,377.600 293.725 C 377.600 293.436,377.780 293.200,378.000 293.200 C 378.220 293.200,378.400 292.840,378.400 292.400 C 378.400 291.960,378.580 291.600,378.800 291.600 C 379.020 291.600,379.200 291.255,379.200 290.833 C 379.200 290.412,379.335 290.007,379.500 289.933 C 379.665 289.860,380.225 288.900,380.744 287.800 C 381.263 286.700,381.848 285.487,382.044 285.105 C 382.240 284.723,382.400 284.138,382.400 283.805 C 382.400 283.472,382.580 283.200,382.800 283.200 C 383.020 283.200,383.200 282.840,383.200 282.400 C 383.200 281.960,383.380 281.600,383.600 281.600 C 383.820 281.600,384.000 281.240,384.000 280.800 C 384.000 280.360,384.147 280.000,384.328 280.000 C 384.508 280.000,384.900 279.100,385.200 278.000 C 385.500 276.900,385.892 276.000,386.072 276.000 C 386.253 276.000,386.400 275.728,386.400 275.395 C 386.400 275.062,386.580 274.432,386.800 273.995 C 387.020 273.558,387.380 272.842,387.600 272.405 C 387.820 271.968,388.000 271.263,388.000 270.839 C 388.000 270.414,388.140 270.007,388.312 269.933 C 388.755 269.744,391.600 260.960,391.600 259.780 C 391.600 259.241,391.780 258.800,392.000 258.800 C 392.220 258.800,392.400 258.170,392.400 257.400 C 392.400 256.630,392.580 256.000,392.800 256.000 C 393.020 256.000,393.200 255.370,393.200 254.600 C 393.200 253.830,393.380 253.200,393.600 253.200 C 393.820 253.200,394.000 252.570,394.000 251.800 C 394.000 251.030,394.180 250.400,394.400 250.400 C 394.620 250.400,394.800 249.680,394.800 248.800 C 394.800 247.920,394.980 247.200,395.200 247.200 C 395.420 247.200,395.600 246.300,395.600 245.200 C 395.600 244.100,395.780 243.200,396.000 243.200 C 396.220 243.200,396.400 242.480,396.400 241.600 C 396.400 240.720,396.580 240.000,396.800 240.000 C 397.020 240.000,397.200 239.111,397.200 238.024 C 397.200 236.937,397.380 235.936,397.600 235.800 C 397.820 235.664,398.000 234.584,398.000 233.400 C 398.000 232.216,398.180 231.136,398.400 231.000 C 398.620 230.864,398.800 229.518,398.800 228.010 C 398.800 226.171,398.965 225.212,399.300 225.100 C 400.032 224.856,400.032 175.144,399.300 174.900 C 398.965 174.788,398.800 173.829,398.800 171.990 C 398.800 170.482,398.620 169.136,398.400 169.000 C 398.180 168.864,398.000 167.784,398.000 166.600 C 398.000 165.416,397.820 164.336,397.600 164.200 C 397.380 164.064,397.200 163.063,397.200 161.976 C 397.200 160.889,397.020 160.000,396.800 160.000 C 396.580 160.000,396.400 159.291,396.400 158.424 C 396.400 157.557,396.220 156.736,396.000 156.600 C 395.780 156.464,395.600 155.553,395.600 154.576 C 395.600 153.599,395.420 152.800,395.200 152.800 C 394.980 152.800,394.800 152.080,394.800 151.200 C 394.800 150.320,394.620 149.600,394.400 149.600 C 394.180 149.600,394.000 148.970,394.000 148.200 C 394.000 147.430,393.820 146.800,393.600 146.800 C 393.380 146.800,393.200 146.170,393.200 145.400 C 393.200 144.630,393.020 144.000,392.800 144.000 C 392.580 144.000,392.400 143.370,392.400 142.600 C 392.400 141.830,392.220 141.200,392.000 141.200 C 391.780 141.200,391.600 140.759,391.600 140.220 C 391.600 139.040,388.755 130.256,388.312 130.067 C 388.140 129.993,388.000 129.586,388.000 129.161 C 388.000 128.737,387.820 128.032,387.600 127.595 C 387.380 127.158,387.020 126.442,386.800 126.005 C 386.580 125.568,386.400 124.938,386.400 124.605 C 386.400 124.272,386.253 124.000,386.072 124.000 C 385.892 124.000,385.500 123.100,385.200 122.000 C 384.900 120.900,384.508 120.000,384.328 120.000 C 384.147 120.000,384.000 119.640,384.000 119.200 C 384.000 118.760,383.820 118.400,383.600 118.400 C 383.380 118.400,383.200 118.040,383.200 117.600 C 383.200 117.160,383.020 116.800,382.800 116.800 C 382.580 116.800,382.400 116.528,382.400 116.195 C 382.400 115.862,382.240 115.277,382.044 114.895 C 381.848 114.513,381.263 113.300,380.744 112.200 C 380.225 111.100,379.665 110.140,379.500 110.067 C 379.335 109.993,379.200 109.588,379.200 109.167 C 379.200 108.745,379.020 108.400,378.800 108.400 C 378.580 108.400,378.400 108.040,378.400 107.600 C 378.400 107.160,378.220 106.800,378.000 106.800 C 377.780 106.800,377.600 106.564,377.600 106.275 C 377.600 105.987,377.240 105.364,376.800 104.892 C 376.360 104.420,376.000 103.756,376.000 103.417 C 376.000 103.078,375.820 102.800,375.600 102.800 C 375.380 102.800,375.200 102.521,375.200 102.180 C 375.200 101.553,374.099 99.168,373.639 98.800 C 373.502 98.690,372.958 97.745,372.432 96.700 C 371.905 95.655,371.366 94.800,371.235 94.800 C 371.103 94.800,370.771 94.294,370.497 93.675 C 370.224 93.056,369.640 92.164,369.200 91.692 C 368.760 91.220,368.400 90.596,368.400 90.305 C 368.400 90.014,368.040 89.517,367.600 89.200 C 367.160 88.883,366.800 88.343,366.800 88.000 C 366.800 87.657,366.440 87.117,366.000 86.800 C 365.560 86.483,365.200 86.020,365.200 85.771 C 365.200 85.522,364.660 84.754,364.000 84.063 C 363.340 83.372,362.800 82.575,362.800 82.292 C 362.800 82.009,362.440 81.517,362.000 81.200 C 361.560 80.883,361.200 80.393,361.200 80.112 C 361.200 79.830,361.020 79.600,360.800 79.600 C 360.580 79.600,360.400 79.370,360.400 79.088 C 360.400 78.807,360.025 78.312,359.566 77.988 C 359.108 77.665,358.451 76.860,358.107 76.200 C 357.763 75.540,357.185 74.730,356.822 74.400 C 356.459 74.070,355.726 73.170,355.194 72.400 C 354.661 71.630,353.584 70.370,352.800 69.600 C 352.016 68.830,350.932 67.570,350.391 66.800 C 349.042 64.880,343.728 59.605,343.437 59.897 C 343.306 60.027,343.200 59.845,343.200 59.494 C 343.200 59.142,342.840 58.740,342.400 58.600 C 341.960 58.460,341.600 58.185,341.600 57.989 C 341.600 57.496,334.915 50.809,333.229 49.615 C 332.474 49.081,330.871 47.689,329.666 46.522 C 328.461 45.355,327.348 44.400,327.192 44.400 C 327.036 44.400,326.299 43.863,325.554 43.206 C 324.809 42.550,324.047 42.010,323.860 42.006 C 323.674 42.003,323.017 41.460,322.400 40.800 C 321.783 40.140,321.081 39.600,320.840 39.600 C 320.598 39.600,320.400 39.420,320.400 39.200 C 320.400 38.980,320.170 38.800,319.888 38.800 C 319.607 38.800,319.117 38.440,318.800 38.000 C 318.483 37.560,317.991 37.200,317.708 37.200 C 317.425 37.200,316.628 36.660,315.937 36.000 C 315.246 35.340,314.478 34.800,314.229 34.800 C 313.980 34.800,313.517 34.440,313.200 34.000 C 312.883 33.560,312.343 33.200,312.000 33.200 C 311.657 33.200,311.117 32.840,310.800 32.400 C 310.483 31.960,309.986 31.600,309.695 31.600 C 309.404 31.600,308.780 31.240,308.308 30.800 C 307.836 30.360,306.944 29.776,306.325 29.503 C 305.706 29.229,305.200 28.897,305.200 28.765 C 305.200 28.634,304.345 28.095,303.300 27.568 C 302.255 27.042,301.268 26.428,301.106 26.205 C 300.914 25.940,300.808 25.938,300.800 26.200 C 300.792 26.467,300.690 26.467,300.494 26.200 C 300.062 25.612,298.503 24.800,297.805 24.800 C 297.472 24.800,297.200 24.620,297.200 24.400 C 297.200 24.180,296.880 24.000,296.488 24.000 C 296.097 24.000,295.517 23.640,295.200 23.200 C 294.883 22.760,294.303 22.400,293.912 22.400 C 293.520 22.400,293.200 22.220,293.200 22.000 C 293.200 21.780,292.840 21.600,292.400 21.600 C 291.960 21.600,291.600 21.420,291.600 21.200 C 291.600 20.980,291.255 20.800,290.833 20.800 C 290.412 20.800,290.007 20.665,289.933 20.500 C 289.860 20.335,288.900 19.775,287.800 19.256 C 286.700 18.737,285.487 18.152,285.105 17.956 C 284.723 17.760,284.138 17.600,283.805 17.600 C 283.472 17.600,283.200 17.420,283.200 17.200 C 283.200 16.980,282.840 16.800,282.400 16.800 C 281.960 16.800,281.600 16.620,281.600 16.400 C 281.600 16.180,281.240 16.000,280.800 16.000 C 280.360 16.000,280.000 15.820,280.000 15.600 C 280.000 15.380,279.651 15.200,279.224 15.200 C 278.797 15.200,278.336 15.020,278.200 14.800 C 278.064 14.580,277.513 14.400,276.976 14.400 C 276.439 14.400,276.000 14.220,276.000 14.000 C 276.000 13.780,275.728 13.600,275.395 13.600 C 275.062 13.600,274.387 13.392,273.895 13.138 C 271.969 12.142,271.583 12.000,270.805 12.000 C 270.362 12.000,270.000 11.860,270.000 11.689 C 270.000 11.421,265.183 9.785,264.896 9.955 C 264.839 9.988,264.265 9.744,263.621 9.411 C 262.977 9.078,262.169 8.914,261.825 9.046 C 261.481 9.178,261.200 9.086,261.200 8.843 C 261.200 8.599,260.660 8.400,260.000 8.400 C 259.340 8.400,258.800 8.220,258.800 8.000 C 258.800 7.780,258.170 7.600,257.400 7.600 C 256.630 7.600,256.000 7.420,256.000 7.200 C 256.000 6.980,255.471 6.800,254.824 6.800 C 254.177 6.800,253.536 6.620,253.400 6.400 C 253.264 6.180,252.533 6.000,251.776 6.000 C 251.019 6.000,250.400 5.820,250.400 5.600 C 250.400 5.380,249.680 5.200,248.800 5.200 C 247.920 5.200,247.200 5.020,247.200 4.800 C 247.200 4.580,246.300 4.400,245.200 4.400 C 244.100 4.400,243.200 4.220,243.200 4.000 C 243.200 3.780,242.480 3.600,241.600 3.600 C 240.720 3.600,240.000 3.420,240.000 3.200 C 240.000 2.980,239.111 2.800,238.024 2.800 C 236.937 2.800,235.936 2.620,235.800 2.400 C 235.664 2.180,234.584 2.000,233.400 2.000 C 232.216 2.000,231.136 1.820,231.000 1.600 C 230.864 1.380,229.518 1.200,228.010 1.200 C 226.193 1.200,225.211 1.034,225.103 0.708 C 224.941 0.222,187.291 -0.126,178.300 0.275 M140.800 125.411 C 144.492 126.087,141.714 123.550,173.309 155.104 L 200.019 181.779 227.096 154.789 C 241.988 139.945,254.238 127.665,254.319 127.500 C 254.400 127.335,254.722 127.200,255.033 127.200 C 255.345 127.200,255.600 127.020,255.600 126.800 C 255.600 126.580,255.949 126.400,256.376 126.400 C 256.803 126.400,257.252 126.240,257.373 126.044 C 257.645 125.604,260.064 125.140,262.200 125.117 C 267.861 125.057,273.345 129.242,274.627 134.600 C 275.183 136.925,274.800 142.583,274.045 143.200 C 273.910 143.310,273.463 144.030,273.051 144.800 C 272.639 145.570,260.226 158.298,245.468 173.084 C 230.710 187.870,218.717 200.061,218.817 200.174 C 218.918 200.288,231.064 212.490,245.809 227.291 C 271.869 253.448,274.400 256.202,274.400 258.414 C 274.400 258.820,274.580 259.264,274.800 259.400 C 275.344 259.736,275.307 264.096,274.749 265.481 C 272.647 270.702,269.013 274.400,265.986 274.400 C 265.580 274.400,265.136 274.580,265.000 274.800 C 264.864 275.020,263.604 275.200,262.200 275.200 C 260.796 275.200,259.536 275.020,259.400 274.800 C 259.264 274.580,258.820 274.400,258.414 274.400 C 256.220 274.400,253.425 271.816,227.367 245.700 C 212.605 230.905,200.365 218.800,200.167 218.800 C 199.970 218.800,187.646 230.905,172.781 245.700 C 144.157 274.190,144.769 273.600,143.817 273.600 C 143.478 273.600,143.200 273.760,143.200 273.955 C 143.200 274.754,135.798 275.558,135.076 274.836 C 134.836 274.596,134.321 274.400,133.932 274.400 C 132.280 274.400,127.200 270.566,127.200 269.319 C 127.200 269.033,127.020 268.800,126.800 268.800 C 126.580 268.800,126.400 268.440,126.400 268.000 C 126.400 267.560,126.220 267.200,126.000 267.200 C 125.780 267.200,125.600 266.671,125.600 266.024 C 125.600 265.377,125.420 264.736,125.200 264.600 C 124.980 264.464,124.800 263.384,124.800 262.200 C 124.800 261.016,124.980 259.936,125.200 259.800 C 125.420 259.664,125.600 259.130,125.600 258.614 C 125.600 256.416,128.229 253.571,154.451 227.393 L 181.611 200.279 179.264 197.840 C 177.973 196.498,165.761 184.240,152.126 170.600 C 126.812 145.278,126.631 145.077,125.256 140.772 C 123.431 135.057,129.195 125.632,134.538 125.594 C 135.012 125.591,135.670 125.405,136.000 125.181 C 136.573 124.793,137.723 124.848,140.800 125.411 " stroke="none" fill="#f44434" fill-rule="evenodd"></path><path id="path2" d="M151.400 133.600 C 152.706 134.920,153.865 136.000,153.975 136.000 C 154.085 136.000,153.106 134.920,151.800 133.600 C 150.494 132.280,149.335 131.200,149.225 131.200 C 149.115 131.200,150.094 132.280,151.400 133.600 M168.200 150.400 C 169.728 151.940,171.069 153.200,171.179 153.200 C 171.289 153.200,170.128 151.940,168.600 150.400 C 167.072 148.860,165.731 147.600,165.621 147.600 C 165.511 147.600,166.672 148.860,168.200 150.400 M184.600 166.800 C 186.128 168.340,187.469 169.600,187.579 169.600 C 187.689 169.600,186.528 168.340,185.000 166.800 C 183.472 165.260,182.131 164.000,182.021 164.000 C 181.911 164.000,183.072 165.260,184.600 166.800 M217.000 235.200 C 218.083 236.300,219.060 237.200,219.170 237.200 C 219.280 237.200,218.483 236.300,217.400 235.200 C 216.317 234.100,215.340 233.200,215.230 233.200 C 215.120 233.200,215.917 234.100,217.000 235.200 M233.400 251.600 C 234.483 252.700,235.460 253.600,235.570 253.600 C 235.680 253.600,234.883 252.700,233.800 251.600 C 232.717 250.500,231.740 249.600,231.630 249.600 C 231.520 249.600,232.317 250.500,233.400 251.600 M137.300 275.076 C 137.685 275.176,138.315 275.176,138.700 275.076 C 139.085 274.975,138.770 274.893,138.000 274.893 C 137.230 274.893,136.915 274.975,137.300 275.076 M261.505 275.083 C 262.002 275.179,262.722 275.175,263.105 275.075 C 263.487 274.975,263.080 274.896,262.200 274.901 C 261.320 274.905,261.007 274.987,261.505 275.083 " stroke="none" fill="#f46c5f" fill-rule="evenodd"></path><path id="path3" d="M136.000 125.492 C 133.531 125.726,131.100 126.969,128.989 129.076 C 126.349 131.712,125.462 133.958,125.462 138.000 C 125.462 143.775,124.006 142.048,154.736 172.744 L 182.110 200.088 154.726 227.544 C 124.166 258.183,125.440 256.678,125.440 262.157 C 125.440 269.697,130.264 274.535,137.827 274.579 C 143.724 274.613,141.950 276.098,172.541 245.525 C 187.469 230.606,199.859 218.400,200.075 218.400 C 200.291 218.400,212.684 230.616,227.614 245.547 C 254.725 272.658,256.717 274.482,259.096 274.366 C 259.556 274.343,259.454 274.226,258.800 274.026 C 255.867 273.130,253.197 270.649,227.601 245.027 C 212.752 230.162,200.326 218.000,199.988 218.000 C 199.651 218.000,187.230 230.168,172.387 245.040 C 142.133 275.354,143.511 274.185,138.000 274.194 C 130.598 274.207,125.868 269.530,125.868 262.200 C 125.868 256.609,124.522 258.207,154.853 227.800 C 169.776 212.840,182.115 200.459,182.273 200.287 C 182.431 200.114,170.201 187.604,155.095 172.487 C 124.505 141.872,125.862 143.474,125.862 138.000 C 125.862 130.817,130.781 125.937,138.020 125.937 C 143.442 125.937,141.897 124.627,172.503 155.157 L 200.006 182.592 227.103 155.553 C 258.708 124.015,256.425 125.934,262.312 125.953 C 268.748 125.973,273.425 130.287,274.383 137.088 L 274.766 139.800 274.601 137.135 C 274.174 130.224,269.152 125.520,262.200 125.520 C 256.530 125.520,258.251 124.070,227.515 154.741 L 200.030 182.168 172.671 154.833 C 141.527 123.715,142.928 124.836,136.000 125.492 M274.051 140.600 C 273.866 143.123,272.002 145.521,264.178 153.300 C 259.808 157.645,256.411 161.200,256.629 161.200 C 258.900 161.200,274.698 142.811,274.277 140.657 C 274.122 139.866,274.104 139.861,274.051 140.600 M236.898 180.505 C 226.502 190.897,217.997 199.671,217.998 200.001 C 217.999 200.332,230.162 212.752,245.027 227.601 C 270.649 253.197,273.130 255.867,274.026 258.800 C 274.226 259.454,274.343 259.556,274.366 259.096 C 274.485 256.640,272.763 254.754,245.513 227.492 C 230.601 212.574,218.400 200.211,218.400 200.018 C 218.400 199.826,226.988 191.103,237.485 180.634 C 247.982 170.165,256.397 161.602,256.185 161.605 C 255.973 161.607,247.294 170.112,236.898 180.505 M274.524 262.200 C 274.526 263.520,274.601 264.012,274.690 263.293 C 274.779 262.574,274.777 261.494,274.686 260.893 C 274.595 260.292,274.522 260.880,274.524 262.200 M274.046 265.316 C 273.841 268.482,269.670 272.784,265.600 274.026 C 264.661 274.313,264.654 274.333,265.488 274.366 C 268.484 274.482,274.933 267.870,274.285 265.347 C 274.109 264.663,274.089 264.661,274.046 265.316 M261.107 274.690 C 261.826 274.779,262.906 274.777,263.507 274.686 C 264.108 274.595,263.520 274.522,262.200 274.524 C 260.880 274.526,260.388 274.601,261.107 274.690 " stroke="none" fill="#f57f75" fill-rule="evenodd"></path><path id="path4" d="M136.104 125.127 C 135.829 125.302,136.570 125.433,137.765 125.421 C 138.951 125.409,139.714 125.268,139.460 125.106 C 138.851 124.717,136.729 124.730,136.104 125.127 M260.538 125.106 C 260.284 125.268,261.032 125.400,262.200 125.400 C 263.368 125.400,264.116 125.268,263.862 125.106 C 263.608 124.944,262.860 124.812,262.200 124.812 C 261.540 124.812,260.792 124.944,260.538 125.106 M125.049 135.815 C 124.912 136.173,124.815 136.766,124.834 137.133 C 124.853 137.500,125.027 137.269,125.221 136.620 C 125.598 135.358,125.465 134.733,125.049 135.815 M124.806 139.033 C 124.809 139.455,124.995 140.070,125.218 140.400 C 125.515 140.838,125.552 140.676,125.356 139.800 C 125.027 138.329,124.798 138.010,124.806 139.033 M245.203 172.900 L 218.206 200.000 221.800 203.500 L 225.394 207.000 222.002 203.496 L 218.610 199.992 245.588 173.012 C 260.426 158.173,272.483 145.980,272.383 145.916 C 272.282 145.852,260.051 157.995,245.203 172.900 M142.200 160.800 C 150.118 168.720,156.686 175.200,156.796 175.200 C 156.906 175.200,150.518 168.720,142.600 160.800 C 134.682 152.880,128.114 146.400,128.004 146.400 C 127.894 146.400,134.282 152.880,142.200 160.800 M166.400 185.000 C 170.025 188.630,173.081 191.600,173.191 191.600 C 173.301 191.600,170.425 188.630,166.800 185.000 C 163.175 181.370,160.119 178.400,160.009 178.400 C 159.899 178.400,162.775 181.370,166.400 185.000 M179.200 197.800 C 180.395 199.010,181.463 200.000,181.573 200.000 C 181.683 200.000,180.795 199.010,179.600 197.800 C 178.405 196.590,177.337 195.600,177.227 195.600 C 177.117 195.600,178.005 196.590,179.200 197.800 M234.800 216.600 C 238.425 220.230,241.481 223.200,241.591 223.200 C 241.701 223.200,238.825 220.230,235.200 216.600 C 231.575 212.970,228.519 210.000,228.409 210.000 C 228.299 210.000,231.175 212.970,234.800 216.600 M165.791 216.100 L 162.600 219.400 165.900 216.209 C 167.715 214.455,169.200 212.970,169.200 212.909 C 169.200 212.618,168.754 213.035,165.791 216.100 M172.799 245.500 L 145.800 272.600 172.853 245.648 C 191.312 227.258,200.068 218.795,200.415 219.009 C 200.747 219.214,200.824 219.163,200.638 218.862 C 200.481 218.608,200.228 218.400,200.075 218.400 C 199.923 218.400,187.648 230.595,172.799 245.500 M252.000 233.800 C 255.625 237.430,258.681 240.400,258.791 240.400 C 258.901 240.400,256.025 237.430,252.400 233.800 C 248.775 230.170,245.719 227.200,245.609 227.200 C 245.499 227.200,248.375 230.170,252.000 233.800 M266.600 248.400 C 269.233 251.040,271.477 253.200,271.587 253.200 C 271.697 253.200,269.633 251.040,267.000 248.400 C 264.367 245.760,262.123 243.600,262.013 243.600 C 261.903 243.600,263.967 245.760,266.600 248.400 M236.000 254.600 C 236.746 255.370,237.447 256.000,237.557 256.000 C 237.667 256.000,237.146 255.370,236.400 254.600 C 235.654 253.830,234.953 253.200,234.843 253.200 C 234.733 253.200,235.254 253.830,236.000 254.600 M274.846 263.667 C 274.821 264.034,274.696 264.664,274.570 265.067 C 274.352 265.762,274.363 265.763,274.797 265.087 C 275.048 264.696,275.173 264.066,275.073 263.687 C 274.911 263.068,274.888 263.066,274.846 263.667 M251.000 269.600 C 251.859 270.480,252.652 271.200,252.762 271.200 C 252.872 271.200,252.259 270.480,251.400 269.600 C 250.541 268.720,249.748 268.000,249.638 268.000 C 249.528 268.000,250.141 268.720,251.000 269.600 " stroke="none" fill="#f46156" fill-rule="evenodd"></path></g></svg>